<?xml version="1.0" encoding="UTF-8"?>
<svg width="22px" height="12px" viewBox="0 0 22 12" version="1.1" xmlns="http://www.w3.org/2000/svg" xmlns:xlink="http://www.w3.org/1999/xlink">
    <title>burger icon</title>
    <g id="Mobile" stroke="none" stroke-width="1" fill="none" fill-rule="evenodd">
        <g id="Patient-Profile-Video-Hotels-&amp;-Food-Page-v2-Test" transform="translate(-324.000000, -50.000000)" fill="#FCFCFD" fill-rule="nonzero">
            <g id="My-profile-(clip-group)" transform="translate(-421.349333, -735.000000)">
                <g id="topcover" transform="translate(179.349333, 0.000000)">
                    <g id="topbar" transform="translate(269.000000, 769.000000)">
                        <g id="icon" transform="translate(292.000000, 6.000000)">
                            <g id="burger-icon" transform="translate(5.333333, 10.666667)">
                                <path d="M1.33333,0 C0.596954,0 0,0.596954 0,1.33333 C0,2.06971 0.596954,2.66667 1.33333,2.66667 L20,2.66667 C20.7364,2.66667 21.3333,2.06971 21.3333,1.33333 C21.3333,0.596954 20.7364,0 20,0 L1.33333,0 Z" id="DD4FA9BA-2BF4-41C0-ADDB-C6F8BB27E9C5"></path>
                                <path d="M1.33333,8 C0.596954,8 0,8.59695 0,9.33333 C0,10.0697 0.596954,10.6667 1.33333,10.6667 L20,10.6667 C20.7364,10.6667 21.3333,10.0697 21.3333,9.33333 C21.3333,8.59695 20.7364,8 20,8 L1.33333,8 Z" id="3DF6662A-9F7E-46EB-97CE-B904CC88B305"></path>
                            </g>
                        </g>
                    </g>
                </g>
            </g>
        </g>
    </g>
</svg>