<?xml version="1.0" encoding="UTF-8"?>
<svg width="14px" height="14px" viewBox="0 0 14 14" version="1.1" xmlns="http://www.w3.org/2000/svg" xmlns:xlink="http://www.w3.org/1999/xlink">
    <title>info</title>
    <g id="Mobile" stroke="none" stroke-width="1" fill="none" fill-rule="evenodd">
        <g id="Patient-Profile-Video-Hotels-&amp;-Food-Page-v2-Test" transform="translate(-337.000000, -224.000000)">
            <g id="My-profile-(clip-group)" transform="translate(-421.349333, -735.000000)">
                <g id="VideoCard" transform="translate(421.349333, 859.000000)">
                    <g id="Video-list" transform="translate(24.000000, 96.000000)">
                        <g id="LearnMore" transform="translate(242.000000, 4.000000)">
                            <g id="info" transform="translate(71.000000, 0.000000)">
                                <polygon id="Path" points="0 0 14 0 14 14 0 14"></polygon>
                                <path d="M6.41666667,4.08333333 L7.58333333,4.08333333 L7.58333333,5.25 L6.41666667,5.25 L6.41666667,4.08333333 Z M6.41666667,6.41666667 L7.58333333,6.41666667 L7.58333333,9.91666667 L6.41666667,9.91666667 L6.41666667,6.41666667 Z M7,1.16666667 C3.78,1.16666667 1.16666667,3.78 1.16666667,7 C1.16666667,10.22 3.78,12.8333333 7,12.8333333 C10.22,12.8333333 12.8333333,10.22 12.8333333,7 C12.8333333,3.78 10.22,1.16666667 7,1.16666667 Z M7,11.6666667 C4.4275,11.6666667 2.33333333,9.5725 2.33333333,7 C2.33333333,4.4275 4.4275,2.33333333 7,2.33333333 C9.5725,2.33333333 11.6666667,4.4275 11.6666667,7 C11.6666667,9.5725 9.5725,11.6666667 7,11.6666667 Z" id="Shape" fill="#777E90" fill-rule="nonzero"></path>
                            </g>
                        </g>
                    </g>
                </g>
            </g>
        </g>
    </g>
</svg>