<?xml version="1.0" encoding="UTF-8"?>
<svg width="134px" height="134px" viewBox="0 0 134 134" version="1.1" xmlns="http://www.w3.org/2000/svg" xmlns:xlink="http://www.w3.org/1999/xlink">
    <title>upload</title>
    <defs>
        <filter x="-18.4%" y="-36.0%" width="136.8%" height="175.3%" filterUnits="objectBoundingBox" id="filter-1">
            <feMorphology radius="8" operator="erode" in="SourceAlpha" result="shadowSpreadOuter1"></feMorphology>
            <feOffset dx="0" dy="24" in="shadowSpreadOuter1" result="shadowOffsetOuter1"></feOffset>
            <feGaussianBlur stdDeviation="8" in="shadowOffsetOuter1" result="shadowBlurOuter1"></feGaussianBlur>
            <feColorMatrix values="0 0 0 0 0   0 0 0 0 0   0 0 0 0 0  0 0 0 0.25 0" type="matrix" in="shadowBlurOuter1" result="shadowMatrixOuter1"></feColorMatrix>
            <feMerge>
                <feMergeNode in="shadowMatrixOuter1"></feMergeNode>
                <feMergeNode in="SourceGraphic"></feMergeNode>
            </feMerge>
        </filter>
    </defs>
    <g id="Mobile" stroke="none" stroke-width="1" fill="none" fill-rule="evenodd">
        <g id="Patient-Profile-Video-Hotels-&amp;-Food-Page-v2-Test" transform="translate(-195.000000, -852.000000)" fill="#F4F5F6">
            <g id="My-profile-(clip-group)" transform="translate(-421.349333, -735.000000)">
                <g id="MenuBar-Bottom" filter="url(#filter-1)" transform="translate(421.349333, 1463.000000)">
                    <g id="Component-2" transform="translate(251.250000, 181.000000)">
                        <g id="upload" transform="translate(0.750000, 0.000000)">
                            <path d="M0,3.63636364 C0,1.62805455 1.98984444,0 4.44444444,0 L13.7145556,0 C14.8933333,0 16.0237778,0.383116364 16.8573333,1.06506364 L18.6982222,2.5713 C19.5317778,3.25324545 20,4.17817273 20,5.14259091 L20,16.3636364 C20,18.3719091 18.0101111,20 15.5555556,20 L4.44444444,20 C1.98984444,20 0,18.3719091 0,16.3636364 L0,3.63636364 Z M17.7777778,6.36363636 L17.7777778,16.3636364 C17.7777778,17.3678182 16.7828889,18.1818182 15.5555556,18.1818182 L4.44444444,18.1818182 C3.21714444,18.1818182 2.22222222,17.3678182 2.22222222,16.3636364 L2.22222222,3.63636364 C2.22222222,2.63220909 3.21714444,1.81818182 4.44444444,1.81818182 L12.2222222,1.81818182 L12.2222222,3.63636364 C12.2222222,5.14259091 13.7145556,6.36363636 15.5555556,6.36363636 L17.7777778,6.36363636 Z M17.6545556,4.54545455 C17.5454444,4.28872727 17.3662222,4.0528 17.1268889,3.85694545 L15.286,2.35071818 C15.0465556,2.15486364 14.7582222,2.00830909 14.4444444,1.91903636 L14.4444444,3.63636364 C14.4444444,4.13843636 14.9418889,4.54545455 15.5555556,4.54545455 L17.6545556,4.54545455 Z" id="Shape"></path>
                            <path d="M9.51195815,6.05901679 C9.43004843,6.09697258 9.35331233,6.15323546 9.286729,6.22780569 L7.20339795,8.56113668 C6.93220068,8.86488223 6.93220068,9.35734001 7.20339795,9.66108557 C7.47459515,9.96482334 7.91429163,9.96482334 8.18549299,9.66108557 L9.08333319,8.65549668 L9.08333319,12.2222222 C9.08333319,12.6517733 9.39424982,13 9.77777757,13 C10.1613053,13 10.4722219,12.6517733 10.4722219,12.2222222 L10.4722219,8.65549668 L11.3700621,9.66108557 C11.6412635,9.96482334 12.0809579,9.96482334 12.3521593,9.66108557 C12.6233537,9.35734001 12.6233537,8.86488223 12.3521593,8.56113668 L10.2688261,6.22780569 C10.0642081,5.99863539 9.7636734,5.94237236 9.51195815,6.05901679 Z" id="Shape" fill-rule="nonzero"></path>
                        </g>
                    </g>
                </g>
            </g>
        </g>
    </g>
</svg>